HIERARCHY
ROOT hip
{
  OFFSET 0.00112043 5.09927 -9.65472
  CHANNELS 6 Xposition Yposition Zposition Zrotation Xrotation Yrotation
  JOINT abdomen
  {
    OFFSET 0 -1.186 -1.5018
    CHANNELS 3 Zrotation Xrotation Yrotation
    JOINT abdomen2
    {
      OFFSET 0 9.964 0.2134
      CHANNELS 3 Zrotation Xrotation Yrotation
      JOINT chest
      {
        OFFSET 0 13.134 -3.2573
        CHANNELS 3 Zrotation Xrotation Yrotation
        JOINT neck
        {
          OFFSET 0 20.686 -1.6905
          CHANNELS 3 Zrotation Xrotation Yrotation
          JOINT head
          {
            OFFSET 0 7.238 -0.1237
            CHANNELS 3 Zrotation Xrotation Yrotation
            End Site
            {
              OFFSET 0 0 0
            }
          }
        }
        JOINT lCollar
        {
          OFFSET 1.7069 20.075 5.0056
          CHANNELS 3 Zrotation Xrotation Yrotation
          JOINT lShldr
          {
            OFFSET 13.6458 -0.047 -4.849
            CHANNELS 3 Zrotation Xrotation Yrotation
            JOINT lForeArm
            {
              OFFSET 28.3255 -0.9759 2.2888
              CHANNELS 3 Zrotation Xrotation Yrotation
              JOINT lHand
              {
                OFFSET 22.1583 -0.53 10.8316
                CHANNELS 3 Zrotation Xrotation Yrotation
                JOINT lThumb1
                {
                  OFFSET 0.786 0.112 2.5817
                  CHANNELS 3 Zrotation Xrotation Yrotation
                  JOINT lThumb2
                  {
                    OFFSET 0.3601 -0.878 4.2331
                    CHANNELS 3 Zrotation Xrotation Yrotation
                    JOINT lThumb2_End
                    {
                      OFFSET 1.8127 -1.216 2.2227
                      CHANNELS 3 Zrotation Xrotation Yrotation
                      End Site
                      {
                        OFFSET 0.0181 -0.0122 0.0222
                      }
                    }
                  }
                }
                JOINT lCarpal1
                {
                  OFFSET 0.9571 1.114 1.7695
                  CHANNELS 3 Zrotation Xrotation Yrotation
                  JOINT lIndex1
                  {
                    OFFSET 4.1246 0.487 4.1451
                    CHANNELS 3 Zrotation Xrotation Yrotation
                    JOINT lIndex2
                    {
                      OFFSET 3.4052 -1.454 2.7682
                      CHANNELS 3 Zrotation Xrotation Yrotation
                      JOINT lIndex2_End
                      {
                        OFFSET 1.4531 -1.795 1.2713
                        CHANNELS 3 Zrotation Xrotation Yrotation
                        End Site
                        {
                          OFFSET 0.0145 -0.0179 0.0127
                        }
                      }
                    }
                  }
                  JOINT lMid1
                  {
                    OFFSET 5.6954 0.21 2.1184
                    CHANNELS 3 Zrotation Xrotation Yrotation
                    JOINT lMid2
                    {
                      OFFSET 3.9766 -1.54 2.3863
                      CHANNELS 3 Zrotation Xrotation Yrotation
                      JOINT lMid2_End
                      {
                        OFFSET 1.4042 -1.926 1.125
                        CHANNELS 3 Zrotation Xrotation Yrotation
                        End Site
                        {
                          OFFSET 0.014 -0.0193 0.0113
                        }
                      }
                    }
                  }
                }
                JOINT lCarpal2
                {
                  OFFSET 2.0956 0.66 -0.3894
                  CHANNELS 3 Zrotation Xrotation Yrotation
                  JOINT lRing1
                  {
                    OFFSET 5.0395 -0.09 2.4971
                    CHANNELS 3 Zrotation Xrotation Yrotation
                    JOINT lRing2
                    {
                      OFFSET 3.7921 -1.552 1.4806
                      CHANNELS 3 Zrotation Xrotation Yrotation
                      JOINT lRing2_End
                      {
                        OFFSET 1.4655 -1.808 0.9609
                        CHANNELS 3 Zrotation Xrotation Yrotation
                        End Site
                        {
                          OFFSET 0.0147 -0.0181 0.0096
                        }
                      }
                    }
                  }
                  JOINT lPinky1
                  {
                    OFFSET 4.9141 -1.269 0.3591
                    CHANNELS 3 Zrotation Xrotation Yrotation
                    JOINT lPinky2
                    {
                      OFFSET 3.1477 -1.685 0.8462
                      CHANNELS 3 Zrotation Xrotation Yrotation
                      JOINT lPinky2_End
                      {
                        OFFSET 0.8055 -1.585 0.7955
                        CHANNELS 3 Zrotation Xrotation Yrotation
                        End Site
                        {
                          OFFSET 0.0081 -0.0158 0.008
                        }
                      }
                    }
                  }
                }
              }
            }
          }
        }
        JOINT rCollar
        {
          OFFSET -1.7069 20.075 5.0056
          CHANNELS 3 Zrotation Xrotation Yrotation
          JOINT rShldr
          {
            OFFSET -13.6458 -0.047 -4.849
            CHANNELS 3 Zrotation Xrotation Yrotation
            JOINT rForeArm
            {
              OFFSET -28.3255 -0.9759 2.2888
              CHANNELS 3 Zrotation Xrotation Yrotation
              JOINT rHand
              {
                OFFSET -22.1583 -0.53 10.8316
                CHANNELS 3 Zrotation Xrotation Yrotation
                JOINT rThumb1
                {
                  OFFSET -0.786 0.112 2.5817
                  CHANNELS 3 Zrotation Xrotation Yrotation
                  JOINT rThumb2
                  {
                    OFFSET -0.3601 -0.878 4.2331
                    CHANNELS 3 Zrotation Xrotation Yrotation
                    JOINT rThumb2_End
                    {
                      OFFSET -1.8127 -1.216 2.2227
                      CHANNELS 3 Zrotation Xrotation Yrotation
                      End Site
                      {
                        OFFSET -0.0181 -0.0122 0.0222
                      }
                    }
                  }
                }
                JOINT rCarpal1
                {
                  OFFSET -0.9571 1.114 1.7695
                  CHANNELS 3 Zrotation Xrotation Yrotation
                  JOINT rIndex1
                  {
                    OFFSET -4.1246 0.487 4.1451
                    CHANNELS 3 Zrotation Xrotation Yrotation
                    JOINT rIndex2
                    {
                      OFFSET -3.4052 -1.454 2.7682
                      CHANNELS 3 Zrotation Xrotation Yrotation
                      JOINT rIndex2_End
                      {
                        OFFSET -1.4531 -1.795 1.2713
                        CHANNELS 3 Zrotation Xrotation Yrotation
                        End Site
                        {
                          OFFSET -0.0145 -0.018 0.0127
                        }
                      }
                    }
                  }
                  JOINT rMid1
                  {
                    OFFSET -5.6954 0.21 2.1184
                    CHANNELS 3 Zrotation Xrotation Yrotation
                    JOINT rMid2
                    {
                      OFFSET -3.9766 -1.54 2.3863
                      CHANNELS 3 Zrotation Xrotation Yrotation
                      JOINT rMid2_End
                      {
                        OFFSET -1.4042 -1.926 1.125
                        CHANNELS 3 Zrotation Xrotation Yrotation
                        End Site
                        {
                          OFFSET -0.014 -0.0193 0.0113
                        }
                      }
                    }
                  }
                }
                JOINT rCarpal2
                {
                  OFFSET -2.0956 0.66 -0.3894
                  CHANNELS 3 Zrotation Xrotation Yrotation
                  JOINT rRing1
                  {
                    OFFSET -5.0395 -0.09 2.4971
                    CHANNELS 3 Zrotation Xrotation Yrotation
                    JOINT rRing2
                    {
                      OFFSET -3.7921 -1.552 1.4806
                      CHANNELS 3 Zrotation Xrotation Yrotation
                      JOINT rRing2_End
                      {
                        OFFSET -1.4655 -1.808 0.9609
                        CHANNELS 3 Zrotation Xrotation Yrotation
                        End Site
                        {
                          OFFSET -0.0147 -0.0181 0.0096
                        }
                      }
                    }
                  }
                  JOINT rPinky1
                  {
                    OFFSET -4.9141 -1.269 0.3592
                    CHANNELS 3 Zrotation Xrotation Yrotation
                    JOINT rPinky2
                    {
                      OFFSET -3.1477 -1.685 0.8462
                      CHANNELS 3 Zrotation Xrotation Yrotation
                      JOINT rPinky2_End
                      {
                        OFFSET -0.8055 -1.585 0.7955
                        CHANNELS 3 Zrotation Xrotation Yrotation
                        End Site
                        {
                          OFFSET -0.0081 -0.0158 0.008
                        }
                      }
                    }
                  }
                }
              }
            }
          }
        }
      }
    }
  }
  JOINT lThigh
  {
    OFFSET 8.367 -8.2066 0.5982
    CHANNELS 3 Zrotation Xrotation Yrotation
    JOINT lShin
    {
      OFFSET 2.1923 -43.463 -0.4932
      CHANNELS 3 Zrotation Xrotation Yrotation
      JOINT lFoot
      {
        OFFSET 0.7333 -45.8593 -2.6451
        CHANNELS 3 Zrotation Xrotation Yrotation
        End Site
        {
          OFFSET 2.6618 -4.2699 12.3931
        }
      }
    }
  }
  JOINT rThigh
  {
    OFFSET -8.367 -8.2066 0.5982
    CHANNELS 3 Zrotation Xrotation Yrotation
    JOINT rShin
    {
      OFFSET -2.1923 -43.463 -0.4931
      CHANNELS 3 Zrotation Xrotation Yrotation
      JOINT rFoot
      {
        OFFSET -0.7333 -45.8593 -2.6451
        CHANNELS 3 Zrotation Xrotation Yrotation
        End Site
        {
          OFFSET -2.6618 -4.2699 12.3931
        }
      }
    }
  }
}
MOTION
Frames:	4
Frame Time:	0.0333333
0 91.7903 2.51682 0 0 -0 0 0 -0 0 0 -0 0 0 -0 0 0 -0 0.00296843 0 -0 0 0 -0 1.66051 0.0835086 5.75766 -0.0175111 0.895433 15.7816 7.95139e-016 -1.98785e-016 -0 5.46658e-016 -3.97569e-016 -0 5.96354e-016 0 -0 3.97569e-016 1.98785e-016 9.54166e-015 1.49089e-016 -3.97569e-016 -0 6.4605e-016 0 3.18055e-015 5.96354e-016 0 3.18055e-015 8.94531e-016 -1.98785e-016 6.36111e-015 6.4605e-016 0 3.18055e-015 5.96354e-016 0 3.18055e-015 8.94531e-016 -1.98785e-016 6.36111e-015 1.49089e-016 -3.97569e-016 -0 6.4605e-016 0 3.18055e-015 5.96354e-016 0 3.18055e-015 8.94531e-016 -1.98785e-016 6.36111e-015 6.4605e-016 0 3.18055e-015 5.96354e-016 0 3.18055e-015 8.94531e-016 -1.98785e-016 6.36111e-015 0 0 -0 -1.4496 0.0636048 -5.0245 -1.74811 1.20616 -16.8394 -1.19271e-015 1.98785e-016 -3.18055e-015 -3.97569e-016 1.98785e-016 -3.18055e-015 -2.98177e-016 1.98785e-016 -3.18055e-015 -2.98177e-016 3.97569e-016 -0 4.96962e-016 0 -6.36111e-015 -9.93923e-017 3.97569e-016 -0 -8.94531e-016 5.96354e-016 -0 -3.97569e-016 3.97569e-016 -0 -9.93923e-017 3.97569e-016 -0 -8.94531e-016 5.96354e-016 -0 -3.97569e-016 3.97569e-016 -0 4.96962e-016 0 -6.36111e-015 -9.93923e-017 3.97569e-016 -0 -8.94531e-016 5.96354e-016 -0 -3.97569e-016 3.97569e-016 -0 -9.93923e-017 3.97569e-016 -0 -8.94531e-016 5.96354e-016 -0 -3.97569e-016 3.97569e-016 -0 -4.66111 -0.998717 0.12318 0.00986924 1.54847 0.176523 4.65186 -0.572283 -0.254274 4.66111 -0.998765 -0.123176 -0.00986867 1.54869 -0.176537 -4.65186 -0.572453 0.25427 
17.411 22.7247 18.8172 -0 -33.0001 -0 0 15.5992 -0 0 31.1985 -0 0 31.1985 -0 0 30.9996 -0 0.00379781 0.274516 -0.173106 -0 -3.18055e-015 -0 -74.353 0.227807 10.7524 -0.601322 -1.41208 -65.1954 23.4734 -8.8385 2.27096 7.95139e-015 -7.95139e-016 3.18055e-015 4.67144e-015 7.95139e-016 -0 -1.78906e-015 7.95139e-016 3.18055e-015 7.85199e-015 0 1.59028e-015 5.06901e-015 0 9.54166e-015 -1.49089e-015 -2.38542e-015 -0 1.88845e-015 -7.95139e-016 1.59028e-015 5.06901e-015 0 9.54166e-015 -1.49089e-015 -2.38542e-015 -0 1.88845e-015 -7.95139e-016 1.59028e-015 7.85199e-015 0 1.59028e-015 5.06901e-015 0 9.54166e-015 -1.49089e-015 -2.38542e-015 -0 1.88845e-015 -7.95139e-016 1.59028e-015 5.06901e-015 0 9.54166e-015 -1.49089e-015 -2.38542e-015 -0 1.88845e-015 -7.95139e-016 1.59028e-015 -1.61294e-007 3.10691e-006 16.997 39.8281 26.3047 23.9284 0.460251 2.97888 35.2805 20.013 -2.35878 19.0501 7.95139e-016 -3.18055e-015 -7.95139e-016 1.45666e-006 1.37992e-006 -2.57983e-006 6.36111e-015 3.18055e-015 1.59028e-015 2.38542e-015 -3.18055e-015 -1.19271e-015 -3.97569e-015 3.18055e-015 -1.59028e-015 1.45666e-006 1.37992e-006 -2.57983e-006 -2.38542e-015 3.18055e-015 -8.34896e-015 -3.97569e-015 3.18055e-015 -1.59028e-015 1.45666e-006 1.37992e-006 -2.57983e-006 -2.38542e-015 3.18055e-015 -8.34896e-015 2.38542e-015 -3.18055e-015 -1.19271e-015 -3.97569e-015 3.18055e-015 -1.59028e-015 1.45666e-006 1.37992e-006 -2.57983e-006 -2.38542e-015 3.18055e-015 -8.34896e-015 -3.97569e-015 3.18055e-015 -1.59028e-015 1.45666e-006 1.37992e-006 -2.57983e-006 -2.38542e-015 3.18055e-015 -8.34896e-015 41.2203 -29.934 7.43679 178.638 42.538 -166.981 0.257134 58.5875 8.26607 -45.1427 -19.8211 1.64564 -178.888 48.0333 169.898 -5.04416 31.6801 -4.59203 
17.3865 23.2341 18.783 -0 -33.0001 -0 0 15.5992 -0 0 31.1985 -0 0 31.1985 -0 0 30.9997 -0 -0.00296983 -2.01976 -0.168489 0 0 -0 -74.353 0.227801 10.7524 -0.627785 -1.43047 -66.203 22.8322 -8.61626 2.16227 6.02179e-006 4.61226e-007 1.34655e-006 6.95746e-016 3.18055e-015 -0 -3.37934e-015 1.59028e-015 1.59028e-015 3.97569e-016 0 1.59028e-015 6.02179e-006 4.61226e-007 1.34655e-006 9.93923e-016 1.59028e-015 3.18055e-015 -5.56597e-015 7.95139e-016 1.59028e-015 6.02179e-006 4.61226e-007 1.34655e-006 9.93923e-016 1.59028e-015 3.18055e-015 -5.56597e-015 7.95139e-016 1.59028e-015 3.97569e-016 0 1.59028e-015 6.02179e-006 4.61226e-007 1.34655e-006 9.93923e-016 1.59028e-015 3.18055e-015 -5.56597e-015 7.95139e-016 1.59028e-015 6.02179e-006 4.61226e-007 1.34655e-006 9.93923e-016 1.59028e-015 3.18055e-015 -5.56597e-015 7.95139e-016 1.59028e-015 -1.2866e-006 2.76963e-006 16.997 37.671 26.2625 24.2972 1.82988 1.77965 39.5709 20.013 -2.35878 19.0501 6.01061e-007 3.91787e-006 -1.26775e-006 -4.37326e-015 3.18055e-015 -1.45113e-014 -9.24986e-007 2.59281e-006 1.32506e-006 -3.18055e-015 0 -2.38542e-015 6.01061e-007 3.91787e-006 -1.26775e-006 -1.98785e-015 0 -7.7526e-015 -9.24986e-007 2.59281e-006 1.32506e-006 6.01061e-007 3.91787e-006 -1.26775e-006 -1.98785e-015 0 -7.7526e-015 -9.24986e-007 2.59281e-006 1.32506e-006 -3.18055e-015 0 -2.38542e-015 6.01061e-007 3.91787e-006 -1.26775e-006 -1.98785e-015 0 -7.7526e-015 -9.24986e-007 2.59281e-006 1.32506e-006 6.01061e-007 3.91787e-006 -1.26775e-006 -1.98785e-015 0 -7.7526e-015 -9.24986e-007 2.59281e-006 1.32506e-006 39.6355 -29.6046 6.23108 178.644 42.9932 -167.075 0.348699 58.5079 8.14658 -43.8898 -20.0545 1.92247 -178.888 48.0163 169.879 -5.05854 31.5984 -4.60275 
17.3617 23.7425 18.7486 -0 -33.0001 -0 0 15.5992 -0 0 31.1985 -0 0 31.1985 -0 0 30.9998 -0 -0.00621587 -4.3428 -0.163941 0 0 -0 -74.353 0.227801 10.7524 -0.654679 -1.44849 -67.2154 22.1906 -8.39239 2.05595 5.56597e-015 0 3.18055e-015 4.5774e-007 1.48998e-006 -1.63357e-006 2.6968e-006 5.71368e-007 3.03864e-006 5.46658e-015 0 3.18055e-015 6.36111e-015 0 9.54166e-015 4.5774e-007 1.48998e-006 -1.63357e-006 2.6968e-006 5.71368e-007 3.03864e-006 6.36111e-015 0 9.54166e-015 4.5774e-007 1.48998e-006 -1.63357e-006 2.6968e-006 5.71368e-007 3.03864e-006 5.46658e-015 0 3.18055e-015 6.36111e-015 0 9.54166e-015 4.5774e-007 1.48998e-006 -1.63357e-006 2.6968e-006 5.71368e-007 3.03864e-006 6.36111e-015 0 9.54166e-015 4.5774e-007 1.48998e-006 -1.63357e-006 2.6968e-006 5.71368e-007 3.03864e-006 -1.2866e-006 2.76963e-006 16.997 35.5105 26.2078 24.6647 3.28986 0.682934 43.9016 20.013 -2.35878 19.0501 -2.78299e-015 3.18055e-015 -9.93923e-016 0 0 -7.95139e-015 -1.59028e-015 -9.54166e-015 -4.17448e-015 1.21382e-031 3.18055e-015 -2.18663e-015 -1.98785e-015 -3.18055e-015 1.98785e-015 -3.18055e-015 0 -1.03368e-014 1.98785e-015 -3.18055e-015 -4.37326e-015 -1.98785e-015 -3.18055e-015 1.98785e-015 -3.18055e-015 0 -1.03368e-014 1.98785e-015 -3.18055e-015 -4.37326e-015 1.21382e-031 3.18055e-015 -2.18663e-015 -1.98785e-015 -3.18055e-015 1.98785e-015 -3.18055e-015 0 -1.03368e-014 1.98785e-015 -3.18055e-015 -4.37326e-015 -1.98785e-015 -3.18055e-015 1.98785e-015 -3.18055e-015 0 -1.03368e-014 1.98785e-015 -3.18055e-015 -4.37326e-015 38.0625 -29.2535 5.03708 178.649 43.4486 -167.169 0.438045 58.4326 8.02875 -42.631 -20.2841 2.20647 -178.889 47.9991 169.859 -5.07314 31.5188 -4.61371 
